<svg width="368" height="368" viewBox="0 0 368 368" fill="none" xmlns="http://www.w3.org/2000/svg">
<path d="M6.7656 82.2545C6.26796 82.351 5.61822 82.5308 5.31408 82.6416C5.00995 82.7381 4.41552 83.0563 4.00081 83.3188C3.58611 83.5819 2.90868 84.162 2.49398 84.6186C2.09306 85.0609 1.55394 85.8627 1.29128 86.4015C1.02861 86.9409 0.724478 87.7703 0.600067 88.2683C0.434185 88.9179 0.392715 89.5262 0.448028 90.4107C0.489498 91.185 0.627694 91.9455 0.793634 92.4153C0.959515 92.83 1.33275 93.5486 1.63688 94.0052C1.99633 94.5715 20.963 113.622 61.385 154.016C116.792 209.381 120.662 213.224 121.506 213.625C122.004 213.86 122.778 214.151 123.234 214.261C123.925 214.454 125.128 214.482 130.741 214.482H137.403C172.116 158.771 182.194 142.555 182.194 142.486C182.194 142.431 168.964 129.16 152.79 112.999C125.418 85.6554 123.303 83.5819 122.405 83.1114C121.879 82.8352 120.897 82.4894 120.234 82.3372L119.017 82.0471C17.6314 82.0747 7.49828 82.1023 6.7656 82.2545ZM358.866 84.2729C358.451 84.328 330.485 90.7978 296.727 98.6359C248.577 109.806 235.168 112.972 234.518 113.276C234.062 113.497 233.357 113.953 232.942 114.285C232.527 114.617 231.933 115.253 231.615 115.709C231.297 116.165 208.929 151.997 181.904 195.336C154.891 238.674 132.593 274.534 132.344 275.032C132.095 275.53 131.832 276.262 131.75 276.649C131.666 277.05 131.598 277.742 131.598 278.17C131.598 278.612 131.694 279.373 131.819 279.87C131.929 280.368 132.261 281.211 132.537 281.736C132.855 282.345 133.409 283.064 134.017 283.672C134.556 284.225 135.344 284.833 135.814 285.068C136.27 285.317 137.002 285.607 137.445 285.732C137.874 285.856 138.676 285.953 139.201 285.953C139.74 285.953 140.528 285.856 140.97 285.746C141.399 285.635 169.226 279.179 202.792 271.383C257.728 258.65 263.922 257.185 264.834 256.729C265.415 256.438 266.175 255.9 266.659 255.429C267.322 254.793 268.235 253.411 271.442 248.282C273.612 244.785 295.842 209.132 320.822 169.07C345.802 128.994 366.456 95.8438 366.691 95.3872C366.939 94.9311 367.243 94.185 367.354 93.7283C367.479 93.2723 367.575 92.4566 367.575 91.9311C367.575 91.3923 367.479 90.5905 367.354 90.1344C367.243 89.6778 366.925 88.9041 366.677 88.4061C366.414 87.9087 365.903 87.162 365.529 86.7473C365.156 86.3326 364.465 85.7243 363.967 85.3923C363.483 85.0747 362.709 84.6876 362.253 84.5491C361.797 84.4113 361.023 84.2591 360.525 84.2177C360.027 84.1758 359.28 84.2039 358.866 84.2729Z" fill="#FF6442"/>
</svg>
